<svg width="369" height="39" viewBox="0 0 369 39" fill="none" xmlns="http://www.w3.org/2000/svg"><path d="M86.82 33.06L71.99 3.34A4.37 4.37 0 0068.15.99h-7.73a4.35 4.35 0 00-3.84 2.35L41.81 33.06c-.21.36-.09.83.28 1.04.12.07.26.11.41.1h6.64c.41.02.79-.21.97-.57l3.27-6.53h21.93l3.26 6.53c.17.38.56.61.97.57h6.64a.8.8 0 00.7-.89c0-.08-.03-.16-.06-.25zM56.58 20.52L62.76 8.1c.16-.28.44-.45.76-.46h1.55c.32-.02.62.17.74.46L72 20.52H56.58zM368.75 1.8v5.04c-.01.44-.36.8-.8.8h-13.4v30.11c0 .32-.25.57-.57.58-.14 0-.27-.05-.38-.14l-6.67-5.66c-.51-.44-.81-1.07-.81-1.75V7.64h-10.66c-.61-.01-1.17-.37-1.43-.92l-2.57-5.14a.377.377 0 01.13-.52c.06-.04.14-.06.21-.05h36.08c.46 0 .83.34.87.79zm-71.87 6.41v6.13h24.46a3.322 3.322 0 010 6.64h-24.46v4.57c.02 1.16.96 2.1 2.12 2.12h27.54c.44.01.79.36.8.8v5.05a.86.86 0 01-.8.8h-29.78a8.497 8.497 0 01-8.48-8.48V5.28c0-2.34 1.89-4.23 4.22-4.24h34.04c.44.01.79.36.8.8V6.9a.86.86 0 01-.8.8h-29.15c-.28-.06-.51.17-.51.51zm-15.75-6.19v29.15a4.14 4.14 0 01-4.14 4.13c-.98 0-1.92-.35-2.67-.98L248.6 12.5v20.73c0 .57-.45 1.03-1.02 1.03h-6.48a1.08 1.08 0 01-1.09-1.03V4.14A4.14 4.14 0 01244.14 0c.98 0 1.93.35 2.68.99l25.71 21.82V2.08c0-.58.44-1.05 1.02-1.09h6.47c.57-.03 1.06.41 1.1.98l.01.05zm-80.12 6.19v6.13h17.01a3.322 3.322 0 010 6.64h-17.01v4.57c.02 1.16.95 2.1 2.12 2.12h27.55c.44.01.79.36.8.8v5.05c-.01.44-.36.79-.8.8H200.9a8.497 8.497 0 01-8.48-8.48V5.28c0-2.33 1.88-4.23 4.22-4.23h34.02c.44.01.79.36.8.8v5.06c-.01.44-.36.79-.8.8h-29.14c-.28-.07-.51.16-.51.5zm-12.14 20.16v5.04c-.01.44-.36.79-.8.8h-23.94a8.497 8.497 0 01-8.48-8.48V1.79c.01-.44.36-.79.8-.8h7.06c.44.01.79.36.8.8v23.65c.02 1.16.96 2.1 2.12 2.12h21.65c.44.03.78.38.79.81zM151.13 1.8v5.04c-.01.44-.36.79-.8.8h-12.49v30.11c0 .32-.26.57-.57.57-.13 0-.26-.05-.37-.14l-6.72-5.71a2.29 2.29 0 01-.81-1.75V7.58h-8.11c-.61-.01-1.17-.37-1.43-.92l-2.58-5.15c-.11-.23.06-.52.4-.52h32.7c.43.02.77.38.78.81zM32.64 17.26c1.55-.57 4.69-2.06 4.69-6.3C37.33 3.69 31.95 1 25.48 1H.8c-.44.01-.79.36-.8.8v31.6c.01.44.36.79.8.8h27.83c4.07-.06 9.9-2.35 9.9-9.85.01-4.68-4.17-6.63-5.89-7.09zM8.47 8.15c-.02-.27.18-.5.45-.52h15.3c1.6 0 5.1 0 5.1 3.32s-3.55 3.32-5.1 3.32H8.48V8.15h-.01zm17.64 19.36H8.98a.48.48 0 01-.51-.44v-6.14h17.64c1.72 0 4.47 0 4.47 3.32 0 3.37-3.15 3.26-4.47 3.26zM113.1 1.8v5.04c-.01.44-.36.8-.8.8h-9.79v30.11c0 .32-.25.57-.57.57-.14 0-.27-.05-.37-.14l-6.72-5.71a2.29 2.29 0 01-.81-1.75V7.57H83.45c-.61-.01-1.17-.37-1.43-.92L79.44 1.5a.43.43 0 01.32-.51l.07-.01h32.47c.43.02.79.37.8.82z" fill="#fff"/><path d="M234.51 17.6c0 2.31-1.88 4.19-4.19 4.19-2.31 0-4.19-1.88-4.19-4.19 0-2.31 1.88-4.19 4.19-4.19 2.3-.01 4.18 1.84 4.19 4.14v.05z" fill="#148EFF"/></svg>