<svg width="24" height="24" viewBox="0 0 24 24" fill="none" stroke="currentColor" xmlns="http://www.w3.org/2000/svg"><path clip-rule="evenodd" d="M19.849 16.396A8.95 8.95 0 0021 12a9 9 0 00-9-9 9 9 0 00-9 9 9 9 0 009 9 8.95 8.95 0 004.396-1.151L21 21l-1.151-4.604z" stroke-width="1.588" stroke-linecap="round" stroke-linejoin="round"/><path d="M11.823 12.323a.25.25 0 11.354.354.25.25 0 11-.354-.354m-4 0a.25.25 0 11.354.354.25.25 0 11-.354-.354m8 0a.25.25 0 11.354.354.25.25 0 11-.354-.354" stroke-width="1.5" stroke-linecap="round" stroke-linejoin="round"/></svg>