<svg width="21" height="20" viewBox="0 0 21 20" fill="none" xmlns="http://www.w3.org/2000/svg"><path d="M12.796 20h3.063c2.812 0 5.123-2.311 5.123-5.124V5.124C20.982 2.31 18.672 0 15.86 0h-3.125c-.062 0-.127.062-.127.124v19.752c0 .062.062.124.189.124zm3.811-11c1.127 0 2 .938 2 2 0 1.126-.938 1.998-2 1.998A1.97 1.97 0 0114.61 11c-.065-1.123.872-1.998 1.998-1.998zm-6.126-9H6.106C3.294 0 .982 2.311.982 5.124v9.752C.982 17.69 3.294 20 6.106 20h4.375c.062 0 .127-.062.127-.124V.124c0-.062-.062-.124-.127-.124zM9.046 18.376h-2.94a3.493 3.493 0 01-3.5-3.5V5.124a3.494 3.494 0 013.5-3.5h2.878l.062 16.752zM4.107 5.999c0 1.062.814 1.875 1.875 1.875A1.843 1.843 0 007.857 6a1.843 1.843 0 00-1.875-1.875A1.843 1.843 0 004.107 6z" fill="#fff"/></svg>