<svg width="27" height="20" viewBox="0 0 27 20" fill="none" xmlns="http://www.w3.org/2000/svg"><path d="M26.665 15.306c-.507.64-1.747 1.095-1.747 1.095l-9.225 3.314v-2.444l6.789-2.418c.77-.275.889-.667.262-.871-.625-.206-1.757-.146-2.526.13l-4.525 1.593v-2.536l.26-.088s1.307-.463 3.146-.667c1.838-.203 4.089.027 5.856.696 1.992.632 2.216 1.558 1.71 2.197zM16.57 11.148V4.896c0-.734-.134-1.41-.822-1.6-.528-.17-.855.32-.855 1.053V20l-4.221-1.34V0c1.794.334 4.409 1.12 5.814 1.595 3.575 1.226 4.786 2.754 4.786 6.195 0 3.354-2.07 4.626-4.701 3.356v.002zm-13.643 5.87C.883 16.438.543 15.24 1.475 14.55c.861-.638 2.325-1.117 2.325-1.117l6.053-2.154v2.453l-4.357 1.56c-.768.275-.886.666-.26.871.624.204 1.756.146 2.526-.13l2.089-.759v2.196l-.416.07a13.7 13.7 0 01-6.508-.523v.001z" fill="#fff"/></svg>