<svg width="20" height="20" viewBox="0 0 20 20" fill="none" xmlns="http://www.w3.org/2000/svg"><path opacity=".4" d="M16.612 4.5a8.78 8.78 0 00-.748-.864 9 9 0 00-12.728 0 8.916 8.916 0 00-.748.864m0 11c.23.299.474.59.748.864a9 9 0 0012.728 0c.274-.274.517-.565.748-.864" stroke="#00AEFF" stroke-width="1.5" stroke-linecap="round" stroke-linejoin="round"/><path clip-rule="evenodd" d="M4.021 12.571H1V10.04h3.019c.699 0 1.266.567 1.266 1.266v0a1.264 1.264 0 01-1.264 1.265z" stroke="#00AEFF" stroke-width="1.5" stroke-linecap="round" stroke-linejoin="round"/><path d="M1 10.04V7.429h2.7c.721 0 1.306.585 1.306 1.306v0c0 .721-.585 1.306-1.306 1.306m11.014-2.612l2.143 2.915L19 7.429m-2.14 5.101v-2.19m-4.717-2.911v3A2.143 2.143 0 0110 12.572v0a2.143 2.143 0 01-2.143-2.143v-3" stroke="#00AEFF" stroke-width="1.5" stroke-linecap="round" stroke-linejoin="round"/></svg>