<svg width="22" height="22" viewBox="0 0 22 22" fill="currentColor" xmlns="http://www.w3.org/2000/svg"><path d="M19.272 9.702c1.154.01 1.53-.318 1.672-.533.538-.7-.303-2.045-2.274-3.067.763-1.442 1.296-2.738 1.56-3.667.147-.509.049-.817.02-.87-.074.45-.68 2.083-2.074 4.298-1.075-.484-2.43-.866-4.03-1.022-.385-.729-1.5-2.743-2.6-3.824C10.821.307 10.244.044 9.79.009c-.597-.068-.973.25-1.179.475-.738.797-1.046 2.103-1.075 3.614-.313-.533-.739-1.057-1.223-1.115h-.01c-.89-.152-1.648 1.256-1.545 3.491-1.648.059-3.051.25-3.995.484-.426.108-.7.313-.763.416.044-.015.963-.396 4.797-.396.225 2.279 1.276 4.376 1.12 4.005-.42.66-1.643 2.68-2.034 4.2-.255.983-.186 1.619.005 2.025.24.547.704.719.997.782 1.076.245 2.382-.156 3.726-.91-.322.553-.596 1.228-.39 1.693.312.846 1.911.802 3.799-.406.865 1.384 1.721 2.489 2.396 3.183.112.117.235.22.376.303.22.137.367.147.367.147-.352-.288-1.462-1.633-2.69-3.946.954-.69 1.962-1.673 2.9-2.978 5.277.195 6.157-1.066 6.362-1.36.636-.84.152-2.454-2.46-4.014zm-3.345 4.567c1.022-1.619 1.306-2.915 1.266-3.97 1.198.752 2.03 1.613 2.108 2.527.049.558-.347 1.252-3.374 1.443zM9.31 16.665c.42-.269.84-.562 1.256-.88.289.572.587 1.12.886 1.643-1.746.939-2.959.547-2.142-.763zm9.242-7.364c-.44-.23-.91-.445-1.394-.646.343-.518.67-1.046.978-1.584 1.682 1.036 1.976 2.283.416 2.23zM11.99 17.11a37.653 37.653 0 01-.709-1.565c1.859.054 2.685-.807 2.72-.875 0 .005-1.077.67-2.69.528a31.472 31.472 0 003.657-3.609c.377-.44.734-.885 1.071-1.335-.014-.015-.068-.127-.709-.513-2.22 2.591-4.396 4.21-5.706 4.983-.885-.48-1.756-1.365-2.397-2.641-.86-1.716-1.29-3.54-1.354-4.988.528.04 1.086.093 1.667.166-.958 1.58-.616 2.71-.577 2.763 0-.005-.039-1.252.866-2.562a29.85 29.85 0 001.922 6.567c.039-.014.078.04.802-.357C9.423 10.47 9.1 7.736 9.09 6.22c.86-.533 2.068-.851 3.506-.768 1.917.113 3.711.655 4.997 1.32-.308.45-.64.915-1.002 1.394-.89-1.623-2.03-1.888-2.098-1.878.005 0 1.115.607 1.785 2.03a31.156 31.156 0 00-4.959-1.365 28.265 28.265 0 00-1.691-.259c-.005.02-.079.078-.093.875 3.344.622 5.873 1.717 7.188 2.46.034 1.012-.298 2.22-1.09 3.418-1.057 1.595-2.426 2.88-3.644 3.663zm1.18-12.333c-1.917-.073-3.164.318-4.069.89.088-2.25.915-3.281 1.643-3.237.724-.186 2.357 2.24 2.426 2.347zm-5.62.133c.02.519.069 1.057.137 1.604a33.568 33.568 0 00-1.824-.054c-.005.137-.005-2.19 1.061-2.132h.005c.25.044.46.294.621.582zm-1.203 6.964c.89 1.706 1.863 2.601 2.802 3.11-2.01 1.066-3.33.86-3.648.195-.01-.014-.479-.665.846-3.305z"/></svg>