<svg width="24" height="24" viewBox="0 0 24 24" fill="currentColor" xmlns="http://www.w3.org/2000/svg"><path d="M18.794 12.683c-.012-1.967.876-3.45 2.67-4.543-1.003-1.442-2.52-2.235-4.52-2.388-1.895-.15-3.967 1.107-4.725 1.107-.802 0-2.635-1.055-4.078-1.055C5.164 5.85 2 8.186 2 12.94c0 1.405.256 2.856.767 4.35.684 1.967 3.15 6.787 5.722 6.71 1.345-.033 2.296-.959 4.046-.959 1.698 0 2.578.958 4.078.958 2.595-.037 4.825-4.419 5.474-6.392-3.48-1.647-3.293-4.823-3.293-4.924zm-3.02-8.798C17.23 2.15 17.098.568 17.055 0c-1.287.075-2.776.88-3.623 1.87-.934 1.06-1.483 2.373-1.366 3.853 1.391.107 2.661-.612 3.707-1.838z"/></svg>