<svg width="20" height="20" viewBox="0 0 20 20" fill="currentColor" xmlns="http://www.w3.org/2000/svg"><path d="M20 3.304c0-.87-.333-1.637-1-2.304-.667-.667-1.435-1-2.304-1H3.304C2.434 0 1.667.333 1 1c-.667.667-1 1.435-1 2.304v13.392c0 .87.333 1.637 1 2.304.667.667 1.435 1 2.304 1H10v-7.565H7.565V9.13H10V7.826c0-1.13.37-2.123 1.109-2.978s1.616-1.283 2.63-1.283h2.696V6.87h-2.696c-.145 0-.283.087-.413.26-.13.174-.196.392-.196.653V9.13h3.305v3.305H13.13V20h3.566c.87 0 1.637-.333 2.304-1 .667-.667 1-1.435 1-2.304V3.304z"/></svg>