<svg
  width="369"
  height="39"
  viewBox="0 0 369 39"
  fill="none"
  xmlns="http://www.w3.org/2000/svg"
>
  <path
    d="M86.82 33.06L71.99 3.34C71.24 1.91 69.77 0.99999 68.15 0.98999H60.42C58.8 0.99999 57.33 1.9 56.58 3.34L41.81 33.06C41.6 33.42 41.72 33.89 42.09 34.1C42.21 34.17 42.35 34.21 42.5 34.2H49.14C49.55 34.22 49.93 33.99 50.11 33.63L53.38 27.1H75.31L78.57 33.63C78.74 34.01 79.13 34.24 79.54 34.2H86.18C86.62 34.15 86.93 33.75 86.88 33.31C86.88 33.23 86.85 33.15 86.82 33.06ZM56.58 20.52L62.76 8.09999C62.92 7.81999 63.2 7.65 63.52 7.64H65.07C65.39 7.62 65.69 7.80999 65.81 8.09999L72 20.52H56.58ZM368.75 1.79999V6.84C368.74 7.28 368.39 7.64 367.95 7.64H354.55V37.75C354.55 38.07 354.3 38.32 353.98 38.33C353.84 38.33 353.71 38.28 353.6 38.19L346.93 32.53C346.42 32.09 346.12 31.46 346.12 30.78V7.64H335.46C334.85 7.63 334.29 7.26999 334.03 6.71999L331.46 1.57999C331.35 1.39999 331.41 1.17 331.59 1.06C331.65 1.02 331.73 0.999995 331.8 1.00999H367.88C368.34 1.00999 368.71 1.34999 368.75 1.79999ZM296.88 8.20999V14.34H321.34C323.17 14.4 324.61 15.94 324.55 17.77C324.49 19.52 323.09 20.92 321.34 20.98H296.88V25.55C296.9 26.71 297.84 27.65 299 27.67H326.54C326.98 27.68 327.33 28.03 327.34 28.47V33.52C327.31 33.95 326.97 34.29 326.54 34.32H296.76C292.08 34.31 288.29 30.52 288.28 25.84V5.28C288.28 2.94 290.17 1.04999 292.5 1.03999H292.52H326.54C326.98 1.04999 327.33 1.4 327.34 1.84V6.89999C327.31 7.32999 326.97 7.67 326.54 7.7H297.39C297.11 7.64 296.88 7.86999 296.88 8.20999ZM281.13 2.01999V31.17C281.13 33.45 279.27 35.3 276.99 35.3C276.01 35.3 275.07 34.95 274.32 34.32L248.6 12.5V33.23C248.6 33.8 248.15 34.26 247.58 34.26H247.57H241.1C240.52 34.27 240.04 33.81 240.01 33.23V4.14C240.01 1.86 241.86 0 244.14 0C245.12 0 246.07 0.34999 246.82 0.98999L272.53 22.81V2.07999C272.53 1.49999 272.97 1.02999 273.55 0.98999H280.02C280.59 0.95999 281.08 1.39999 281.12 1.96999L281.13 2.01999ZM201.01 8.20999V14.34H218.02C219.85 14.4 221.29 15.94 221.23 17.77C221.17 19.52 219.77 20.92 218.02 20.98H201.01V25.55C201.03 26.71 201.96 27.65 203.13 27.67H230.68C231.12 27.68 231.47 28.03 231.48 28.47V33.52C231.47 33.96 231.12 34.31 230.68 34.32H200.9C196.22 34.31 192.43 30.52 192.42 25.84V5.28C192.42 2.95 194.3 1.04999 196.64 1.04999H230.66C231.1 1.05999 231.45 1.40999 231.46 1.84999V6.90999C231.45 7.34999 231.1 7.69999 230.66 7.70999H201.52C201.24 7.63999 201.01 7.86999 201.01 8.20999ZM188.87 28.37V33.41C188.86 33.85 188.51 34.2 188.07 34.21H164.13C159.45 34.2 155.66 30.41 155.65 25.73V1.78999C155.66 1.34999 156.01 0.99999 156.45 0.98999H163.51C163.95 0.99999 164.3 1.34999 164.31 1.78999V25.44C164.33 26.6 165.27 27.54 166.43 27.56H188.08C188.52 27.59 188.86 27.94 188.87 28.37ZM151.13 1.79999V6.84C151.12 7.28 150.77 7.63 150.33 7.64H137.84V37.75C137.84 38.07 137.58 38.32 137.27 38.32C137.14 38.32 137.01 38.27 136.9 38.18L130.18 32.47C129.67 32.04 129.37 31.4 129.37 30.72V7.57999H121.26C120.65 7.56999 120.09 7.20999 119.83 6.65999L117.25 1.50999C117.14 1.27999 117.31 0.98999 117.65 0.98999H150.35C150.78 1.00999 151.12 1.36999 151.13 1.79999ZM32.64 17.26C34.19 16.69 37.33 15.2 37.33 10.96C37.33 3.68999 31.95 1 25.48 1H0.800003C0.360003 1.01 0.01 1.35999 0 1.79999V33.4C0.01 33.84 0.360003 34.19 0.800003 34.2H28.63C32.7 34.14 38.53 31.85 38.53 24.35C38.54 19.67 34.36 17.72 32.64 17.26ZM8.47 8.14999C8.45 7.87999 8.65 7.64999 8.92 7.62999H8.99H24.22C25.82 7.62999 29.32 7.63 29.32 10.95C29.32 14.27 25.77 14.27 24.22 14.27H8.48V8.14999H8.47ZM26.11 27.51H8.98C8.72 27.53 8.49 27.33 8.47 27.07V27V20.93H26.11C27.83 20.93 30.58 20.93 30.58 24.25C30.58 27.62 27.43 27.51 26.11 27.51ZM113.1 1.79999V6.84C113.09 7.28 112.74 7.64 112.3 7.64H102.51V37.75C102.51 38.07 102.26 38.32 101.94 38.32C101.8 38.32 101.67 38.27 101.57 38.18L94.85 32.47C94.34 32.04 94.04 31.4 94.04 30.72V7.56999H83.45C82.84 7.55999 82.28 7.19999 82.02 6.64999L79.44 1.5C79.39 1.27 79.53 1.04999 79.76 0.98999L79.83 0.979996H112.3C112.73 0.999996 113.09 1.34999 113.1 1.79999Z"
    fill="white"
  />
  <path
    d="M234.51 17.6C234.51 19.91 232.63 21.79 230.32 21.79C228.01 21.79 226.13 19.91 226.13 17.6C226.13 15.29 228.01 13.41 230.32 13.41C232.62 13.4 234.5 15.25 234.51 17.55V17.6Z"
    fill="#148EFF"
  />
</svg>
